<?xml version="1.0" standalone="no"?>
<!DOCTYPE svg PUBLIC "-//W3C//DTD SVG 20010904//EN"
 "http://www.w3.org/TR/2001/REC-SVG-20010904/DTD/svg10.dtd">
<svg version="1.0" xmlns="http://www.w3.org/2000/svg"
 width="225.000000pt" height="225.000000pt" viewBox="0 0 225.000000 225.000000"
 preserveAspectRatio="xMidYMid meet">

<g transform="translate(0.000000,225.000000) scale(0.100000,-0.100000)"
fill="#000000" stroke="none">
<path d="M747 1652 c-627 -422 -732 -493 -740 -508 -5 -9 -5 -24 -1 -35 7 -15
954 -662 1020 -696 31 -17 62 1 69 39 3 18 5 113 3 211 l-3 177 86 0 c121 0
330 -18 419 -36 96 -20 232 -71 306 -115 79 -47 187 -150 230 -220 39 -62 61
-75 94 -52 20 14 21 21 15 97 -34 389 -284 665 -748 825 -117 40 -323 91 -371
91 l-26 0 0 179 c0 99 -4 191 -9 204 -20 53 -37 45 -344 -161z"/>
</g>
</svg>
