<?xml version="1.0" standalone="no"?>
<!DOCTYPE svg PUBLIC "-//W3C//DTD SVG 20010904//EN"
 "http://www.w3.org/TR/2001/REC-SVG-20010904/DTD/svg10.dtd">
<svg version="1.0" xmlns="http://www.w3.org/2000/svg"
 width="240.000000pt" height="210.000000pt" viewBox="0 0 240.000000 210.000000"
 preserveAspectRatio="xMidYMid meet">

<g transform="translate(0.000000,210.000000) scale(0.100000,-0.100000)"
fill="#000000" stroke="none">
<path d="M1493 2017 l-84 -82 128 -126 c70 -69 157 -152 191 -185 l64 -59 79
82 c70 73 79 87 79 120 0 35 -9 46 -141 172 -78 75 -151 141 -163 148 -44 26
-66 16 -153 -70z"/>
<path d="M1023 1528 l-259 -273 -53 -237 c-29 -131 -50 -242 -47 -246 3 -5
112 20 243 54 l238 64 46 47 c157 162 469 495 469 502 0 8 -364 361 -373 361
-3 0 -122 -123 -264 -272z m-96 -484 c62 -59 112 -108 110 -111 -10 -9 -288
-79 -292 -73 -5 9 56 290 63 290 3 0 56 -48 119 -106z"/>
<path d="M326 745 c-111 -45 -217 -129 -270 -214 -14 -22 -33 -67 -42 -100
-15 -52 -15 -69 -5 -115 16 -70 71 -134 143 -167 48 -22 66 -24 198 -24 164 1
187 6 566 120 267 81 479 112 574 86 25 -7 25 -9 26 -112 2 -125 15 -159 77
-191 37 -20 57 -22 157 -22 138 0 187 12 421 95 193 69 223 88 223 145 0 42
-39 84 -79 84 -13 0 -75 -18 -137 -41 -213 -77 -285 -98 -369 -108 -128 -17
-117 -25 -116 82 1 77 -2 99 -21 134 -43 82 -120 112 -284 113 -140 0 -292
-30 -563 -111 -363 -108 -504 -131 -592 -94 -42 18 -53 30 -53 63 0 80 117
187 251 231 20 6 45 21 55 32 26 29 23 83 -6 114 -30 32 -76 33 -154 0z"/>
</g>
</svg>
